<mxfile host="app.diagrams.net" modified="2023-10-21T01:50:26.214Z" agent="Mozilla/5.0 (Macintosh; Intel Mac OS X 10_15_7) AppleWebKit/537.36 (KHTML, like Gecko) Chrome/117.0.0.0 Safari/537.36" etag="KtGuaCptq22en5Xf7pVt" version="22.0.6" type="google">
  <diagram name="PÃ¡gina-1" id="qozMEBct-FzQyyHhwMpH">
    <mxGraphModel grid="1" page="1" gridSize="10" guides="1" tooltips="1" connect="1" arrows="1" fold="1" pageScale="1" pageWidth="827" pageHeight="1169" math="0" shadow="0">
      <root>
        <mxCell id="0" />
        <mxCell id="1" parent="0" />
        <mxCell id="Z3HLCNq9n6ubJ0KpWgIl-1" value="Controlador" style="shape=folder;fontStyle=1;tabWidth=76;tabHeight=20;tabPosition=left;html=1;boundedLbl=1;labelInHeader=1;container=1;collapsible=0;whiteSpace=wrap;fillColor=#dae8fc;strokeColor=#6c8ebf;" vertex="1" parent="1">
          <mxGeometry x="960" y="280" width="440" height="380" as="geometry" />
        </mxCell>
        <mxCell id="Z3HLCNq9n6ubJ0KpWgIl-2" value="" style="html=1;strokeColor=none;resizeWidth=1;resizeHeight=1;fillColor=none;part=1;connectable=0;allowArrows=0;deletable=0;whiteSpace=wrap;" vertex="1" parent="Z3HLCNq9n6ubJ0KpWgIl-1">
          <mxGeometry width="439.99999999999994" height="266" relative="1" as="geometry">
            <mxPoint y="30" as="offset" />
          </mxGeometry>
        </mxCell>
        <mxCell id="Z3HLCNq9n6ubJ0KpWgIl-23" value="Classname" style="swimlane;fontStyle=1;align=center;verticalAlign=top;childLayout=stackLayout;horizontal=1;startSize=26;horizontalStack=0;resizeParent=1;resizeParentMax=0;resizeLast=0;collapsible=1;marginBottom=0;whiteSpace=wrap;html=1;swimlaneFillColor=#F0F0F0;gradientColor=none;" vertex="1" parent="Z3HLCNq9n6ubJ0KpWgIl-1">
          <mxGeometry x="20.00482758620683" y="40" width="182.07" height="108.82689655172413" as="geometry" />
        </mxCell>
        <mxCell id="Z3HLCNq9n6ubJ0KpWgIl-24" value="+ field: type" style="text;strokeColor=none;fillColor=none;align=left;verticalAlign=top;spacingLeft=4;spacingRight=4;overflow=hidden;rotatable=0;points=[[0,0.5],[1,0.5]];portConstraint=eastwest;whiteSpace=wrap;html=1;" vertex="1" parent="Z3HLCNq9n6ubJ0KpWgIl-23">
          <mxGeometry y="26" width="182.07" height="24" as="geometry" />
        </mxCell>
        <mxCell id="Z3HLCNq9n6ubJ0KpWgIl-25" value="" style="line;strokeWidth=1;fillColor=none;align=left;verticalAlign=middle;spacingTop=-1;spacingLeft=3;spacingRight=3;rotatable=0;labelPosition=right;points=[];portConstraint=eastwest;strokeColor=inherit;" vertex="1" parent="Z3HLCNq9n6ubJ0KpWgIl-23">
          <mxGeometry y="50" width="182.07" height="26.206896551724142" as="geometry" />
        </mxCell>
        <mxCell id="Z3HLCNq9n6ubJ0KpWgIl-26" value="+ method(type): type" style="text;strokeColor=none;fillColor=none;align=left;verticalAlign=top;spacingLeft=4;spacingRight=4;overflow=hidden;rotatable=0;points=[[0,0.5],[1,0.5]];portConstraint=eastwest;whiteSpace=wrap;html=1;" vertex="1" parent="Z3HLCNq9n6ubJ0KpWgIl-23">
          <mxGeometry y="76.20689655172414" width="182.07" height="32.62" as="geometry" />
        </mxCell>
        <mxCell id="Z3HLCNq9n6ubJ0KpWgIl-3" value="Modelo" style="shape=folder;fontStyle=1;tabWidth=60;tabHeight=20;tabPosition=left;html=1;boundedLbl=1;labelInHeader=1;container=1;collapsible=0;whiteSpace=wrap;fillColor=#d5e8d4;strokeColor=#82b366;" vertex="1" parent="1">
          <mxGeometry y="280" width="440" height="380" as="geometry" />
        </mxCell>
        <mxCell id="Z3HLCNq9n6ubJ0KpWgIl-4" value="" style="html=1;strokeColor=none;resizeWidth=1;resizeHeight=1;fillColor=none;part=1;connectable=0;allowArrows=0;deletable=0;whiteSpace=wrap;" vertex="1" parent="Z3HLCNq9n6ubJ0KpWgIl-3">
          <mxGeometry width="347.36842105263156" height="229.31034482758625" relative="1" as="geometry">
            <mxPoint y="30" as="offset" />
          </mxGeometry>
        </mxCell>
        <mxCell id="Z3HLCNq9n6ubJ0KpWgIl-15" value="Classname" style="swimlane;fontStyle=1;align=center;verticalAlign=top;childLayout=stackLayout;horizontal=1;startSize=26;horizontalStack=0;resizeParent=1;resizeParentMax=0;resizeLast=0;collapsible=1;marginBottom=0;whiteSpace=wrap;html=1;swimlaneFillColor=#F0F0F0;gradientColor=none;" vertex="1" parent="Z3HLCNq9n6ubJ0KpWgIl-3">
          <mxGeometry x="20.0048275862069" y="40" width="182.07" height="108.82689655172413" as="geometry" />
        </mxCell>
        <mxCell id="Z3HLCNq9n6ubJ0KpWgIl-16" value="+ field: type" style="text;strokeColor=none;fillColor=none;align=left;verticalAlign=top;spacingLeft=4;spacingRight=4;overflow=hidden;rotatable=0;points=[[0,0.5],[1,0.5]];portConstraint=eastwest;whiteSpace=wrap;html=1;" vertex="1" parent="Z3HLCNq9n6ubJ0KpWgIl-15">
          <mxGeometry y="26" width="182.07" height="24" as="geometry" />
        </mxCell>
        <mxCell id="Z3HLCNq9n6ubJ0KpWgIl-17" value="" style="line;strokeWidth=1;fillColor=none;align=left;verticalAlign=middle;spacingTop=-1;spacingLeft=3;spacingRight=3;rotatable=0;labelPosition=right;points=[];portConstraint=eastwest;strokeColor=inherit;" vertex="1" parent="Z3HLCNq9n6ubJ0KpWgIl-15">
          <mxGeometry y="50" width="182.07" height="26.206896551724142" as="geometry" />
        </mxCell>
        <mxCell id="Z3HLCNq9n6ubJ0KpWgIl-18" value="+ method(type): type" style="text;strokeColor=none;fillColor=none;align=left;verticalAlign=top;spacingLeft=4;spacingRight=4;overflow=hidden;rotatable=0;points=[[0,0.5],[1,0.5]];portConstraint=eastwest;whiteSpace=wrap;html=1;" vertex="1" parent="Z3HLCNq9n6ubJ0KpWgIl-15">
          <mxGeometry y="76.20689655172414" width="182.07" height="32.62" as="geometry" />
        </mxCell>
        <mxCell id="Z3HLCNq9n6ubJ0KpWgIl-5" value="Vista" style="shape=folder;fontStyle=1;tabWidth=50;tabHeight=20;tabPosition=left;html=1;boundedLbl=1;labelInHeader=1;container=1;collapsible=0;whiteSpace=wrap;fillColor=#f8cecc;strokeColor=#b85450;" vertex="1" parent="1">
          <mxGeometry x="480" y="280" width="440" height="380" as="geometry" />
        </mxCell>
        <mxCell id="Z3HLCNq9n6ubJ0KpWgIl-6" value="" style="html=1;strokeColor=none;resizeWidth=1;resizeHeight=1;fillColor=none;part=1;connectable=0;allowArrows=0;deletable=0;whiteSpace=wrap;" vertex="1" parent="Z3HLCNq9n6ubJ0KpWgIl-5">
          <mxGeometry width="439.99999999999994" height="266" relative="1" as="geometry">
            <mxPoint y="30" as="offset" />
          </mxGeometry>
        </mxCell>
        <mxCell id="Z3HLCNq9n6ubJ0KpWgIl-19" value="Classname" style="swimlane;fontStyle=1;align=center;verticalAlign=top;childLayout=stackLayout;horizontal=1;startSize=26;horizontalStack=0;resizeParent=1;resizeParentMax=0;resizeLast=0;collapsible=1;marginBottom=0;whiteSpace=wrap;html=1;swimlaneFillColor=#F0F0F0;gradientColor=none;" vertex="1" parent="Z3HLCNq9n6ubJ0KpWgIl-5">
          <mxGeometry x="20.004827586206886" y="40" width="182.07" height="108.82689655172413" as="geometry" />
        </mxCell>
        <mxCell id="Z3HLCNq9n6ubJ0KpWgIl-20" value="+ field: type" style="text;strokeColor=none;fillColor=none;align=left;verticalAlign=top;spacingLeft=4;spacingRight=4;overflow=hidden;rotatable=0;points=[[0,0.5],[1,0.5]];portConstraint=eastwest;whiteSpace=wrap;html=1;" vertex="1" parent="Z3HLCNq9n6ubJ0KpWgIl-19">
          <mxGeometry y="26" width="182.07" height="24" as="geometry" />
        </mxCell>
        <mxCell id="Z3HLCNq9n6ubJ0KpWgIl-21" value="" style="line;strokeWidth=1;fillColor=none;align=left;verticalAlign=middle;spacingTop=-1;spacingLeft=3;spacingRight=3;rotatable=0;labelPosition=right;points=[];portConstraint=eastwest;strokeColor=inherit;" vertex="1" parent="Z3HLCNq9n6ubJ0KpWgIl-19">
          <mxGeometry y="50" width="182.07" height="26.206896551724142" as="geometry" />
        </mxCell>
        <mxCell id="Z3HLCNq9n6ubJ0KpWgIl-22" value="+ method(type): type" style="text;strokeColor=none;fillColor=none;align=left;verticalAlign=top;spacingLeft=4;spacingRight=4;overflow=hidden;rotatable=0;points=[[0,0.5],[1,0.5]];portConstraint=eastwest;whiteSpace=wrap;html=1;" vertex="1" parent="Z3HLCNq9n6ubJ0KpWgIl-19">
          <mxGeometry y="76.20689655172414" width="182.07" height="32.62" as="geometry" />
        </mxCell>
      </root>
    </mxGraphModel>
  </diagram>
</mxfile>
